<?xml version="1.0" encoding="utf-8"?>
<!-- Generator: Adobe Illustrator 23.0.1, SVG Export Plug-In . SVG Version: 6.00 Build 0)  -->
<svg version="1.1" id="Layer_1" xmlns="http://www.w3.org/2000/svg" xmlns:xlink="http://www.w3.org/1999/xlink" x="0px" y="0px"
	 viewBox="0 0 250 250" style="enable-background:new 0 0 250 250;" xml:space="preserve">
<path d="M55.33,183.4c0,5.58,0,11.15,0,16.88c-0.34-0.12-1.02-0.35-2.09-0.71c0.68,3.01,3.46,2.84,5.02,4.17
	c0.23-0.16,0.46-0.33,0.69-0.49c-0.47-0.78-0.94-1.56-1.4-2.35c0.16-0.01,0.31-0.02,0.47-0.03c-0.2-1.48-0.4-2.95-0.59-4.43
	c0.15-0.1,0.3-0.2,0.45-0.3c1.16,1.8,2.32,3.59,3.48,5.39c0.27,0.05,0.54,0.09,0.8,0.14c0.15-0.79,0.51-1.61,0.42-2.38
	c-0.31-2.51-0.97-4.82-3.7-5.94c-0.56-0.23-0.79-1.27-1.32-2.2c2.16,0.54,3.85,0.96,5.54,1.38c2.55,0.86-1.39,4.35,2.23,5.48
	c1.84-6.22-3.11-11.04-3.87-16.7c0.22-0.07,0.44-0.14,0.66-0.21c0.99,2.29,1.97,4.59,3.17,7.38c0.34-1.06,0.48-1.49,0.62-1.92
	c-0.14,5.59,4.53,9.98,3.37,16.2c2.37-1.42,3.51-2.66,2.75-4.86c-0.96-2.75,1.78-3.17,2.97-4.92c0.21,0.94,0.36,1.59,0.51,2.23
	c0.15,0.02,0.29,0.04,0.44,0.05c0.99-4.38,1.97-8.76,2.96-13.13c0.25-0.01,0.49-0.02,0.74-0.04c0.67,1.45-0.68,4.26,2.78,4.21
	c0-2.6-0.07-5.09,0.03-7.58c0.05-1.1,0.1-2.47,0.73-3.25c3-3.72,5.5-7.65,6.66-12.36c0.15-0.63,0.95-1.07,1.35-1.66
	c0.74-1.11,1.45-2.26,2.09-3.43c2.58-4.67,1.43-9.17,0.31-14.13c-0.91-3.99,0.76-8.51,1-12.81c0.27-4.84,1.08-9.92-0.01-14.49
	c-0.72-3.01-1.7-5.89-1.68-9.04c0.04-4.6,0.01-4.6,4.63-5.19c-3.36-2.23-6.6-4.38-10.15-6.75c0,5.42,0,11.03,0,16.63
	c-0.39-0.03-0.78-0.05-1.17-0.08c-0.74-16.34-1.03-32.61,6.85-47.86c0.08,0.74,0.15,1.51,0.23,2.28c0.32,0.05,0.63,0.1,0.95,0.15
	c0.3-1.45,0.59-2.89,1.03-5.05c-1.1,0.77-1.54,1.07-2.02,1.4c0.6-3.54,1.15-6.9,1.77-10.24c0.07-0.39,0.49-0.98,0.8-1.03
	c3.97-0.53,4.99-4.15,6.77-6.74c2.63-3.84,6.39-4.82,10.5-5.2c0.83-0.08,1.77,1.05,2.84,1.74c1.63-1.52,3.62-3.06,5.15-4.96
	c0.61-0.75,0.29-2.32,0.25-3.51c-0.05-1.39-0.29-2.77-0.37-4.16c-0.44-7.5,7.42-12.45,13.69-11.23c3.29,0.64,7.09,1.16,8.13,4.48
	c1.39,4.43,5.2,5.38,8.18,7.63c0.83,0.62,1.43,1.54,2.65,2.89c3.46,0,7.74,0,12.08,0c0.56,2.58,1.08,4.93,1.65,7.53
	c9.27,0,18.91,0.01,28.54-0.01c2.1-0.01,4.28-0.25,3.6,3.24c5.61,0,10.83-0.01,16.05,0.01c1.56,0,3.36-0.37,3.27,2.2
	c-0.08,2.43-1.61,2.49-3.46,2.47c-6.08-0.06-12.17,0-18.25-0.04c-1.05-0.01-2.1-0.27-3.57-0.47c-0.3,1.08-0.68,2.44-1.12,4.01
	c-3.88,0-7.89,0-11.9,0c-3.98,0-5.45,1.28-6.22,5.09c-0.28,1.38-0.96,2.67-1.47,4c-0.1,0.26-0.31,0.49-0.36,0.75
	c-0.93,5.17-5.38,8.28-7.56,12.77c-1.38,2.85-3.93,5.14-6.07,7.58c-0.35,0.4-1.4,0.54-1.95,0.33c-2.52-0.97-5-2.04-7.43-3.22
	c-1.48-0.72-2.85-1.68-4.63-2.76c-1.15,2.03-2.14,3.79-3.22,5.7c6.51,1.46,6.52,1.46,5.08,7.73c-0.77,3.34-1.58,6.68-2.39,10.11
	c-2.25,0.52-7.37,3.58-7.49,6.64c-0.13,3.21-0.28,6.19,1.54,9.28c5.58,9.44,7.92,20.23,12.01,30.31c2.93-0.04,3.92,1.01,3.75,4.61
	c-0.26,5.54,0.15,11.16-2.91,16.31c-1.48,2.5,0.5,5.93,3.1,6.07c0,0.78,0,1.57,0,2.54c-0.82-0.51-1.47-0.91-2.16-1.33
	c-1.34,3.55-0.29,6.24,2.97,7.78c-0.37,0.73-0.75,1.46-1.13,2.2c0.27,0.19,0.54,0.39,0.81,0.58c0.71-0.83,1.43-1.66,2.31-2.68
	c0.49,0.25,1.26,0.65,2,1.04c-0.1,0.34-0.09,0.6-0.2,0.67c-4.95,3.15-4.93,3.14-3.93,9.14c0.3,1.8,0.39,3.64,0.62,5.78
	c4.41-2.47,0.45-6.05,2.13-9.15c1.14,1.04,2.2,2,3.73,3.38c0.61-3.32,1.41-6.42,1.69-9.58c0.29-3.2,0.06-6.44,0.06-9.67
	c0.28-0.02,0.56-0.03,0.84-0.05c0.22,3.16,0.44,6.32,0.65,9.49c0.19,2.96,0.36,5.92,0.57,8.87c0.03,0.43,0.48,0.98,0.33,1.25
	c-1.7,3.01,1.25,2.66,2.31,3.67c0.22-0.13,0.44-0.25,0.65-0.38c-0.42-0.79-0.84-1.58-0.98-1.84c-0.2-1.99-0.36-3.5-0.51-5.01
	c0.15-0.1,0.3-0.2,0.46-0.3c1.11,1.84,2.21,3.68,3.41,5.68c0.68-0.61,1.26-1.13,2.12-1.89c-1.81-2.85-3.65-5.73-5.5-8.65
	c1.49-0.89,3.53,3.82,4.68-0.24c0.27-0.07,0.54-0.14,0.82-0.21c0.05,1.66-0.04,3.35,0.19,4.98c0.11,0.81,0.8,1.54,1.49,2.76
	c2.11-6.91-2.96-11.71-3.87-17.35c0.23-0.07,0.45-0.14,0.68-0.2c1.02,2.23,2.03,4.47,3.22,7.08c0.43-0.77,0.64-1.15,0.48-0.86
	c1.06,2.78,2.38,5.94,3.44,9.19c0.35,1.06-0.21,2.4,0.06,3.52c0.6,2.52,1.45,4.99,2.22,7.55c-0.14,0.02,0.19,0,0.19-0.03
	c0.17-3.21,0.35-6.43,0.44-9.64c0.03-1.27-0.13-2.2,1.3-3.21c3.91-2.77,5.79-6.85,5.99-11.67c0.01-0.25,0.13-0.51,0.18-0.68
	c1.71,5.87-0.26,11.54-1.71,17.76c1.4-0.5,2.1-0.75,2.99-1.07c0.34,1.95-1.87,4.66,2.14,5.67c0-4.47,0-8.83,0-13.19
	c0.3-0.02,0.61-0.04,0.91-0.06c0.36,2.53,0.85,5.06,1.07,7.6c0.55,6.49,0.98,12.99,1.47,19.49c0.32,4.2-1.16,7.79-3.3,11.36
	c-3.71,6.2-9.73,8.36-16.16,8.63c-14.36,0.6-28.75,0.66-43.13,0.6c-10.28-0.04-20.56-0.75-30.84-0.9c-6.92-0.1-13.84,0.34-20.76,0.4
	c-8.3,0.08-15.86-2.49-22.71-7.04c-5.05-3.35-8.24-7.93-7.6-14.34c0.48-4.88,1.21-9.73,1.71-14.61c0.42-4.15,0.67-8.32,1-12.47
	C54.51,183.41,54.92,183.4,55.33,183.4z M119.93,198.36c-0.22-1.24-0.6-2.29-0.56-3.33c0.2-4.75,0.6-9.48,0.78-14.23
	c0.16-4.3,0.08-8.61,0.18-12.92c0.17-7.62,0.42-15.24,0.57-22.87c0.02-1.15-0.34-2.3-0.52-3.45c-0.31,0.02-0.63,0.04-0.94,0.06
	c-0.51,3.37-1.23,6.72-1.47,10.11c-0.47,6.57-1.88,12.59-7.25,17.13c-1.62,1.37-3.07,3.33-3.79,5.31
	c-2.05,5.61-3.72,11.35-5.44,17.08c-0.27,0.9-0.04,1.96-0.04,3.17c0.78-1.17,1.35-2.02,2.18-3.27c0.65,1.54,0.96,2.3,1.28,3.05
	c0.23-0.03,0.46-0.07,0.69-0.1c0.12-1.93,0.25-3.86,0.37-5.8c0.28-0.01,0.57-0.03,0.85-0.04c0.37,3.08,0.75,6.16,1.13,9.27
	c0.83-1.04,1.64-2.03,2.41-3.05c1.18-1.55,1.89-2.78,0.93-5.17c-1.04-2.58-0.5-5.79-0.65-8.73c0.17-0.02,0.33-0.05,0.5-0.07
	c0.71,2.87,1.43,5.74,2.32,9.35c1.49-2.66,2.58-4.6,3.66-6.54c0.22,0.08,0.43,0.16,0.65,0.25c-1.94,4.74-5.17,9.26-2.83,15.05
	c0.58-0.66,1-1.14,1.46-1.68C117.3,198.77,118.3,199.86,119.93,198.36z M130.24,163.76c-0.37,0.12-0.74,0.23-1.11,0.35
	c-0.38-1.04-1.26-2.2-1.04-3.09c0.52-2.12-0.56-3.26-2.14-3.43c-0.54-0.06-1.88,2.14-1.92,3.33c-0.16,4.6,0.11,9.21,0.11,13.82
	c0,1.73-0.32,3.46-0.52,5.36c0.83,0,1.41,0,2.05,0c0.29,3.14,0.43,6.16,0.87,9.12c0.44,2.97,1.19,5.9,1.84,8.99
	c1.6-0.43,3.53-0.68,3.54-0.99c0.09-2.99-0.04-6-0.33-8.98c-0.13-1.3-1.23-2.6-1.12-3.83c0.58-6.28,1.42-12.54,2.16-18.81
	c0.12-1.01,0.57-2.3,0.13-2.98c-1.56-2.41-1.46-4.87-0.92-7.46c0.08-0.39-0.15-0.84-0.25-1.31c-2.13-0.01-2.39,0.64-1.75,2.5
	c0.35,1.01-0.77,2.45-0.71,3.68C129.17,161.29,129.84,162.52,130.24,163.76z M161.26,59.62c-0.9,0-2.02-0.34-2.48,0.06
	c-1.7,1.49-3.58,3.02-4.56,4.96c-0.49,0.98,0.69,2.94,1.41,4.3c0.31,0.58,1.48,1.17,2.1,1.04c3.19-0.7,5.24-4.53,4.25-7.55
	C161.72,61.6,161.55,60.74,161.26,59.62z M144,42.1c2.73-0.72,5.01-1.3,7.25-2.01c0.08-0.02-0.22-1.94-0.4-1.94
	c-1.63-0.08-1.61-1.11-1.75-2.31c-0.1-0.88-0.42-1.98-1.05-2.48c-0.47-0.38-2.2-0.14-2.28,0.14c-0.28,0.95,0.01,2.05-0.08,3.08
	c-0.09,1.07-0.31,2.14-0.59,3.17C144.92,40.42,144.51,41.03,144,42.1z M147.26,55.63c0.73-1.52,1.32-2.72,1.91-3.95
	c-1.74,0-3.22,0-5.03,0C145.22,53.05,146.05,54.1,147.26,55.63z M183.92,195.69c0.3,0.08,0.59,0.15,0.89,0.23
	c0.86-3.09,1.71-6.19,2.57-9.28c-0.36-0.1-0.73-0.19-1.09-0.29C185.5,189.46,184.71,192.57,183.92,195.69z M131.97,203.99
	c0.37-0.78,0.68-1.24,0.83-1.75c0.33-1.17,0.25-2.15-1.31-2.28c-0.53-0.05-1.06-0.21-1.58-0.31c0.29,0.79,0.53,1.61,0.88,2.38
	C131.04,202.6,131.43,203.11,131.97,203.99z M146.52,85.99c-0.7-0.85-1.17-2.01-1.85-2.14c-1.66-0.32-2.61,1-2.69,2.76
	C143.15,86.46,144.41,86.28,146.52,85.99z M174.81,194.03c-0.41,0.05-0.82,0.11-1.24,0.16c0.21,1.72,0.42,3.44,0.63,5.16
	c0.38-0.06,0.76-0.11,1.14-0.17C175.17,197.47,174.99,195.75,174.81,194.03z M65.23,200.81c-0.39,0.05-0.78,0.1-1.17,0.14
	c0.12,1.5,0.23,2.99,0.35,4.49c0.4-0.04,0.8-0.07,1.2-0.11C65.47,203.82,65.35,202.32,65.23,200.81z"/>
</svg>
