<?xml version="1.0" encoding="utf-8"?>
<!-- Generator: Adobe Illustrator 23.0.1, SVG Export Plug-In . SVG Version: 6.00 Build 0)  -->
<svg version="1.1" id="Layer_1" xmlns="http://www.w3.org/2000/svg" xmlns:xlink="http://www.w3.org/1999/xlink" x="0px" y="0px"
	 viewBox="0 0 250 250" style="enable-background:new 0 0 250 250;" xml:space="preserve">
<style type="text/css">
	.st0{fill:#FFFFFF;}
</style>
<path class="st0" d="M154.81,156.64c0.92,2.57,1.62,4.51,2.46,6.84c-4.79,0.86-8.81-0.73-13.28-2.08
	c3.89,6.34,7.79,12.67,11.68,19.01c-0.15,0.12-0.3,0.25-0.45,0.37c-4.49-4.06-8.98-8.12-14.15-12.78c0,26,0,51.15,0,76.68
	c-2.87,0-5.3,0-7.74,0c-5.67,0-11.35-0.12-17.02,0.06c-2.43,0.08-3.1-0.65-3.09-3.06c0.09-18.3,0.07-36.61,0.02-54.91
	c0-1.34-0.53-2.68-0.82-4.03c-1.08,0.88-2.31,1.64-3.2,2.68c-1.54,1.78-2.86,3.74-4.28,5.62c-0.28-0.08-0.56-0.17-0.85-0.25
	c0.48-2.19,0.59-4.55,1.52-6.52c2.2-4.64,1.94-9.33,1.14-14.13c-0.01-0.09-0.03-0.18-0.04-0.27c-0.35-3.05,0.52-6.59-4-7.99
	c0.18-0.24,0.36-0.48,0.55-0.71c3.95-1.55,7.88-3.16,11.85-4.65c5.9-2.2,11.89-4.19,17.75-6.51c4.76-1.88,9.47-1.17,13.98,0.27
	c9.3,2.96,18.47,6.36,27.69,9.6c0.23,0.08,0.4,0.31,0.48,0.93C168.45,159.44,161.88,158.09,154.81,156.64z"/>
<path class="st0" d="M163.6,105.28c19.32-0.1,35.64,0.94,51.76,4.06c6.71,1.3,13.3,3.24,19.91,5.02c3.45,0.93,5.2,3.05,5.27,5.84
	c0.07,2.96-1.66,5.01-5.37,6.42c-13.05,4.96-26.54,8-40.43,9.41c-18.55,1.87-37.08,1.32-55.63,0.16c-2.31-0.14-3.14-0.86-3.1-3.27
	c0.14-7.86,0.1-15.73,0.02-23.6c-0.02-2.07,0.61-2.91,2.79-2.99C148.06,106.02,157.28,105.56,163.6,105.28z"/>
<path class="st0" d="M156.72,81.81c-2.2,3.09-4.1,6.49-6.73,9.16c-1.33,1.34-3.95,1.62-6.06,1.93c-7.89,1.16-15.23-0.82-22.27-4.25
	c-5.26-2.56-10.52-5.11-15.76-7.69c-0.78-0.38-1.48-0.91-2.17-2.05c1.93-0.25,3.87-0.42,5.78-0.79c0.91-0.18,1.76-0.74,2.63-1.12
	c-0.47-0.73-0.91-1.49-1.43-2.18c-0.33-0.43-0.79-0.76-1.19-1.13c-3.65-3.42-3.81-3.59-0.09-7.15c2.03-1.94,2.5-3.97,2.48-6.56
	c-0.09-17.3-0.06-34.59-0.15-51.89c-0.01-2.13,0.63-2.85,2.83-2.82c7.69,0.13,15.38,0.1,23.06,0.01c1.92-0.02,2.58,0.61,2.56,2.5
	c-0.22,23.51-0.4,47.02-0.59,70.53c-0.01,0.73-0.12,1.48-0.02,2.19c0.73,5.13,2.76,6.57,7.06,5.01c1.63-0.59,3.26-1.19,4.83-1.9
	c1.56-0.71,3.06-1.57,4.59-2.36C156.29,81.44,156.5,81.62,156.72,81.81z"/>
<path class="st0" d="M186.58,58.93c-0.31,0.59-0.55,1.22-0.93,1.75c-5.75,8.03-11.49,16.07-17.31,24.06
	c-0.72,0.99-1.77,1.86-2.86,2.43c-3.81,2.03-7.71,3.91-11.57,5.85c-0.13-0.19-0.27-0.38-0.4-0.57
	c10.79-11.36,21.57-22.72,32.36-34.08C186.1,58.56,186.34,58.74,186.58,58.93z"/>
<path class="st0" d="M144.91,177.43c8.27,8.7,16.55,17.39,24.82,26.09c-0.14,0.22-0.28,0.44-0.42,0.65
	c-0.69-0.36-1.45-0.63-2.05-1.1c-5.38-4.24-10.78-8.45-16.04-12.83c-1.27-1.06-2.2-2.63-2.97-4.14c-1.38-2.73-2.52-5.59-3.76-8.39
	C144.63,177.61,144.77,177.52,144.91,177.43z"/>
<path class="st0" d="M160.68,74.18c6.93-9.67,13.85-19.34,20.78-29.01c0.27,0.17,0.55,0.34,0.82,0.51c-0.28,0.7-0.5,1.44-0.85,2.11
	c-2.83,5.41-5.8,10.75-8.49,16.23c-1.3,2.64-2.98,4.7-5.49,6.22c-2.17,1.31-4.17,2.9-6.25,4.37
	C161.02,74.46,160.85,74.32,160.68,74.18z"/>
<path class="st0" d="M167.19,173.01c5.55,0.14,5.24-1.08,6.98,4.93c0.33,1.14,0.8,2.25,1,3.41c0.12,0.69-0.16,1.45-0.25,2.18
	c-0.77-0.11-1.7,0.03-2.27-0.36c-3.24-2.22-6.44-4.52-9.56-6.92c-0.61-0.47-0.83-1.46-1.23-2.21c0.77-0.34,1.52-0.85,2.33-0.99
	C165.16,172.88,166.19,173.01,167.19,173.01z"/>
<path class="st0" d="M141.26,81.98c2.78-5.17,5.56-10.35,8.47-15.76c1.97,0.95,3.72,1.79,5.05,2.42c-4.29,4.71-8.5,9.33-12.71,13.95
	C141.8,82.39,141.53,82.19,141.26,81.98z"/>
<path class="st0" d="M186.01,66.57c3.4-1.76,6.8-3.52,10.86-5.63c-0.67,2.81-1.08,4.92-1.72,6.95c-0.15,0.46-1.14,1.02-1.66,0.94
	c-2.49-0.39-4.95-0.99-7.42-1.51C186.06,67.07,186.03,66.82,186.01,66.57z"/>
<path class="st0" d="M192.06,174.52c-1.47,4.03-2.03,4.25-5.14,2.12c-2.91-2-5.8-4.03-8.41-6.62
	C183.02,171.51,187.53,173.01,192.06,174.52z"/>
</svg>
